#Comment line ignore any data following # character 
#Hierarchical Translation and Rotation (.htr) file 
[Header]	
#Header keywords are followed by a single value 
FileType HTR		#Single word string
DataType HTRS		#Translation followed by rotation and scale data
FileVersion 1		#integer
NumSegments 84		#integer
NumFrames 2		#integer
DataFrameRate 30		#integer, data frame rate in this file
EulerRotationOrder ZYX
CalibrationUnits mm
RotationUnits Degrees
GlobalAxisofGravity Y
BoneLengthAxis Y
ScaleFactor 1.00
[SegmentNames&Hierarchy]
#CHILD	PARENT
MASTER GLOBAL
root MASTER
chest root
L_mid_tent01 root
R_mid_tent01 root
spine01 root
Bip01_Neck chest
L_humerus chest
R_humerus chest
weapon_bone chest
Bip01_Head Bip01_Neck
eye_left_bone Bip01_Head
eye_right_bone Bip01_Head
L_forearm L_humerus
L_front_hand L_forearm
L_weapon_bone L_forearm
L_front_hand01_01 L_front_hand
L_front_hand02_01 L_front_hand
L_front_hand03_01 L_front_hand
L_front_hand01_02 L_front_hand01_01
L_front_hand02_02 L_front_hand02_01
L_front_hand03_02 L_front_hand03_01
R_forearm R_humerus
R_front_hand R_forearm
R_weapon_bone R_forearm
R_front_hand01_01 R_front_hand
R_front_hand02_01 R_front_hand
R_front_hand03_01 R_front_hand
R_front_hand01_02 R_front_hand01_01
R_front_hand02_02 R_front_hand02_01
R_front_hand03_02 R_front_hand03_01
null_rope01_connect L_mid_tent01
Rope1_Seg01 null_rope01_connect
Rope1_Seg02 Rope1_Seg01
Rope1_Seg03 Rope1_Seg02
Rope1_Seg04 Rope1_Seg03
Rope1_Seg05 Rope1_Seg04
Rope1_Seg06 Rope1_Seg05
Rope1_Seg07 Rope1_Seg06
Rope1_Seg09 Rope1_Seg07
L_mid_hand01 Rope1_Seg09
L_mid_hand02 Rope1_Seg09
L_mid_hand03 Rope1_Seg09
null_rope02_connect R_mid_tent01
Rope2_Seg01 null_rope02_connect
Rope2_Seg02 Rope2_Seg01
Rope2_Seg03 Rope2_Seg02
Rope2_Seg04 Rope2_Seg03
Rope2_Seg05 Rope2_Seg04
Rope2_Seg06 Rope2_Seg05
Rope2_Seg07 Rope2_Seg06
Rope2_Seg09 Rope2_Seg07
R_mid_hand01 Rope2_Seg09
R_mid_hand02 Rope2_Seg09
R_mid_hand03 Rope2_Seg09
spine02 spine01
spine03 spine02
pelvis spine03
null_rope03_connect pelvis
null_rope04_connect pelvis
Rope3_Seg01 null_rope03_connect
Rope3_Seg02 Rope3_Seg01
Rope3_Seg03 Rope3_Seg02
Rope3_Seg04 Rope3_Seg03
Rope3_Seg05 Rope3_Seg04
Rope3_Seg06 Rope3_Seg05
Rope3_Seg07 Rope3_Seg06
Rope3_Seg08 Rope3_Seg07
Rope3_Seg09 Rope3_Seg08
R_rear_hand01 Rope3_Seg09
R_rear_hand02 Rope3_Seg09
R_rear_hand03 Rope3_Seg09
Rope4_Seg01 null_rope04_connect
Rope4_Seg02 Rope4_Seg01
Rope4_Seg03 Rope4_Seg02
Rope4_Seg04 Rope4_Seg03
Rope4_Seg05 Rope4_Seg04
Rope4_Seg06 Rope4_Seg05
Rope4_Seg07 Rope4_Seg06
Rope4_Seg08 Rope4_Seg07
Rope4_Seg09 Rope4_Seg08
L_rear_hand01 Rope4_Seg09
L_rear_hand02 Rope4_Seg09
L_rear_hand03 Rope4_Seg09
[BasePosition]
#SegmentName Tx, Ty, Tz, Rx, Ry, Rz, BoneLength
MASTER 0.000000 0.000000 0.000000 -90.000000 0.000000 0.000000 10.000000 
root 0.000000 0.000000 0.000000 0.000000 0.000000 0.000000 10.000000 
chest 0.000000 0.000000 0.000000 0.000000 0.000000 0.000000 10.000000 
L_mid_tent01 0.000000 0.000000 0.000000 0.000000 0.000000 0.000000 10.000000 
R_mid_tent01 0.000000 0.000000 0.000000 0.000000 0.000000 0.000000 10.000000 
spine01 0.000000 0.000000 0.000000 0.000000 0.000000 0.000000 10.000000 
Bip01_Neck 0.000000 0.000000 0.000000 0.000000 0.000000 0.000000 10.000000 
L_humerus 0.000000 0.000000 0.000000 0.000000 0.000000 0.000000 10.000000 
R_humerus 0.000000 0.000000 0.000000 0.000000 0.000000 0.000000 10.000000 
weapon_bone 0.000000 0.000000 0.000000 0.000000 0.000000 0.000000 10.000000 
Bip01_Head 0.000000 0.000000 0.000000 0.000000 0.000000 0.000000 10.000000 
eye_left_bone 0.000000 0.000000 0.000000 0.000000 0.000000 0.000000 10.000000 
eye_right_bone 0.000000 0.000000 0.000000 0.000000 0.000000 0.000000 10.000000 
L_forearm 0.000000 0.000000 0.000000 0.000000 0.000000 0.000000 10.000000 
L_front_hand 0.000000 0.000000 0.000000 0.000000 0.000000 0.000000 10.000000 
L_weapon_bone 0.000000 0.000000 0.000000 0.000000 0.000000 0.000000 10.000000 
L_front_hand01_01 0.000000 0.000000 0.000000 0.000000 0.000000 0.000000 10.000000 
L_front_hand02_01 0.000000 0.000000 0.000000 0.000000 0.000000 0.000000 10.000000 
L_front_hand03_01 0.000000 0.000000 0.000000 0.000000 0.000000 0.000000 10.000000 
L_front_hand01_02 0.000000 0.000000 0.000000 0.000000 0.000000 0.000000 10.000000 
L_front_hand02_02 0.000000 0.000000 0.000000 0.000000 0.000000 0.000000 10.000000 
L_front_hand03_02 0.000000 0.000000 0.000000 0.000000 0.000000 0.000000 10.000000 
R_forearm 0.000000 0.000000 0.000000 0.000000 0.000000 0.000000 10.000000 
R_front_hand 0.000000 0.000000 0.000000 0.000000 0.000000 0.000000 10.000000 
R_weapon_bone 0.000000 0.000000 0.000000 0.000000 0.000000 0.000000 10.000000 
R_front_hand01_01 0.000000 0.000000 0.000000 0.000000 0.000000 0.000000 10.000000 
R_front_hand02_01 0.000000 0.000000 0.000000 0.000000 0.000000 0.000000 10.000000 
R_front_hand03_01 0.000000 0.000000 0.000000 0.000000 0.000000 0.000000 10.000000 
R_front_hand01_02 0.000000 0.000000 0.000000 0.000000 0.000000 0.000000 10.000000 
R_front_hand02_02 0.000000 0.000000 0.000000 0.000000 0.000000 0.000000 10.000000 
R_front_hand03_02 0.000000 0.000000 0.000000 0.000000 0.000000 0.000000 10.000000 
null_rope01_connect 0.000000 0.000000 0.000000 0.000000 0.000000 0.000000 10.000000 
Rope1_Seg01 0.000000 0.000000 0.000000 0.000000 0.000000 0.000000 10.000000 
Rope1_Seg02 0.000000 0.000000 0.000000 0.000000 0.000000 0.000000 10.000000 
Rope1_Seg03 0.000000 0.000000 0.000000 0.000000 0.000000 0.000000 10.000000 
Rope1_Seg04 0.000000 0.000000 0.000000 0.000000 0.000000 0.000000 10.000000 
Rope1_Seg05 0.000000 0.000000 0.000000 0.000000 0.000000 0.000000 10.000000 
Rope1_Seg06 0.000000 0.000000 0.000000 0.000000 0.000000 0.000000 10.000000 
Rope1_Seg07 0.000000 0.000000 0.000000 0.000000 0.000000 0.000000 10.000000 
Rope1_Seg09 0.000000 0.000000 0.000000 0.000000 0.000000 0.000000 10.000000 
L_mid_hand01 0.000000 0.000000 0.000000 0.000000 0.000000 0.000000 10.000000 
L_mid_hand02 0.000000 0.000000 0.000000 0.000000 0.000000 0.000000 10.000000 
L_mid_hand03 0.000000 0.000000 0.000000 0.000000 0.000000 0.000000 10.000000 
null_rope02_connect 0.000000 0.000000 0.000000 0.000000 0.000000 0.000000 10.000000 
Rope2_Seg01 0.000000 0.000000 0.000000 0.000000 0.000000 0.000000 10.000000 
Rope2_Seg02 0.000000 0.000000 0.000000 0.000000 0.000000 0.000000 10.000000 
Rope2_Seg03 0.000000 0.000000 0.000000 0.000000 0.000000 0.000000 10.000000 
Rope2_Seg04 0.000000 0.000000 0.000000 0.000000 0.000000 0.000000 10.000000 
Rope2_Seg05 0.000000 0.000000 0.000000 0.000000 0.000000 0.000000 10.000000 
Rope2_Seg06 0.000000 0.000000 0.000000 0.000000 0.000000 0.000000 10.000000 
Rope2_Seg07 0.000000 0.000000 0.000000 0.000000 0.000000 0.000000 10.000000 
Rope2_Seg09 0.000000 0.000000 0.000000 0.000000 0.000000 0.000000 10.000000 
R_mid_hand01 0.000000 0.000000 0.000000 0.000000 0.000000 0.000000 10.000000 
R_mid_hand02 0.000000 0.000000 0.000000 0.000000 0.000000 0.000000 10.000000 
R_mid_hand03 0.000000 0.000000 0.000000 0.000000 0.000000 0.000000 10.000000 
spine02 0.000000 0.000000 0.000000 0.000000 0.000000 0.000000 10.000000 
spine03 0.000000 0.000000 0.000000 0.000000 0.000000 0.000000 10.000000 
pelvis 0.000000 0.000000 0.000000 0.000000 0.000000 0.000000 10.000000 
null_rope03_connect 0.000000 0.000000 0.000000 0.000000 0.000000 0.000000 10.000000 
null_rope04_connect 0.000000 0.000000 0.000000 0.000000 0.000000 0.000000 10.000000 
Rope3_Seg01 0.000000 0.000000 0.000000 0.000000 0.000000 0.000000 10.000000 
Rope3_Seg02 0.000000 0.000000 0.000000 0.000000 0.000000 0.000000 10.000000 
Rope3_Seg03 0.000000 0.000000 0.000000 0.000000 0.000000 0.000000 10.000000 
Rope3_Seg04 0.000000 0.000000 0.000000 0.000000 0.000000 0.000000 10.000000 
Rope3_Seg05 0.000000 0.000000 0.000000 0.000000 0.000000 0.000000 10.000000 
Rope3_Seg06 0.000000 0.000000 0.000000 0.000000 0.000000 0.000000 10.000000 
Rope3_Seg07 0.000000 0.000000 0.000000 0.000000 0.000000 0.000000 10.000000 
Rope3_Seg08 0.000000 0.000000 0.000000 0.000000 0.000000 0.000000 10.000000 
Rope3_Seg09 0.000000 0.000000 0.000000 0.000000 0.000000 0.000000 10.000000 
R_rear_hand01 0.000000 0.000000 0.000000 0.000000 0.000000 0.000000 10.000000 
R_rear_hand02 0.000000 0.000000 0.000000 0.000000 0.000000 0.000000 10.000000 
R_rear_hand03 0.000000 0.000000 0.000000 0.000000 0.000000 0.000000 10.000000 
Rope4_Seg01 0.000000 0.000000 0.000000 0.000000 0.000000 0.000000 10.000000 
Rope4_Seg02 0.000000 0.000000 0.000000 0.000000 0.000000 0.000000 10.000000 
Rope4_Seg03 0.000000 0.000000 0.000000 0.000000 0.000000 0.000000 10.000000 
Rope4_Seg04 0.000000 0.000000 0.000000 0.000000 0.000000 0.000000 10.000000 
Rope4_Seg05 0.000000 0.000000 0.000000 0.000000 0.000000 0.000000 10.000000 
Rope4_Seg06 0.000000 0.000000 0.000000 0.000000 0.000000 0.000000 10.000000 
Rope4_Seg07 0.000000 0.000000 0.000000 0.000000 0.000000 0.000000 10.000000 
Rope4_Seg08 0.000000 0.000000 0.000000 0.000000 0.000000 0.000000 10.000000 
Rope4_Seg09 0.000000 0.000000 0.000000 0.000000 0.000000 0.000000 10.000000 
L_rear_hand01 0.000000 0.000000 0.000000 0.000000 0.000000 0.000000 10.000000 
L_rear_hand02 0.000000 0.000000 0.000000 0.000000 0.000000 0.000000 10.000000 
L_rear_hand03 0.000000 0.000000 0.000000 0.000000 0.000000 0.000000 10.000000 
#Beginning of Data. Separated by tabs
#Fr	Tx	Ty	Tz	Rx	Ry	Rz	SF
[MASTER]
83 1129.624268 4047.160156 892.814514 0.001660 0.001660 0.001660 4295.657227
84 985.105347 4113.070801 788.842529 0.001660 0.001660 0.001660 4302.331543
[root]
83 153.821716 -228.678558 586.785645 -55.317547 -10.442168 -71.020950 648.284241
84 137.067261 -243.279663 590.798035 -61.452946 -13.813688 -69.816093 653.463623
[chest]
83 -84.512650 -34.090519 0.000000 16.185816 0.315084 159.359528 91.129311
84 -84.512650 -34.090519 0.000000 14.138227 -3.446441 162.148071 91.129311
[L_mid_tent01]
83 27.298925 22.179232 -249.918701 -18.834232 7.420628 24.112995 252.381668
84 27.298923 22.179234 -249.918701 -19.025099 8.119411 23.886747 252.381668
[R_mid_tent01]
83 23.228794 24.509907 226.238495 153.762955 -5.823036 2.081847 228.744751
84 23.228794 24.509907 226.238495 154.854614 -4.225029 3.733341 228.744751
[spine01]
83 -0.361383 -0.195265 0.000000 0.001696 0.001622 2.553890 0.410763
84 -0.361383 -0.195265 0.000000 0.001689 0.001630 2.004787 0.410763
[Bip01_Neck]
83 165.484543 71.581718 0.000119 176.643677 -1.657967 43.431911 180.302734
84 165.484543 71.581718 0.000119 176.643677 -1.657967 43.431911 180.302734
[L_humerus]
83 -13.983130 -135.272980 -120.471481 172.724899 -6.954651 -93.757294 181.680161
84 -13.983130 -135.272980 -120.471481 172.246613 -3.636884 -94.464622 181.680161
[R_humerus]
83 -13.983309 -135.273102 125.287651 -176.638428 9.621421 -85.494194 184.909012
84 -13.983309 -135.273102 125.287651 -176.742599 6.817721 -85.528839 184.909012
[weapon_bone]
83 235.964890 -300.705902 0.000000 0.000000 -89.951546 -128.212341 382.234833
84 235.964890 -300.705902 0.000000 0.000000 -89.951546 -128.212341 382.234833
[Bip01_Head]
83 205.054993 172.937775 37.080975 12.936031 1.949605 -41.871239 270.795166
84 205.646027 173.837982 35.298088 10.613079 2.131130 -42.181568 271.580353
[eye_left_bone]
83 -24.626970 125.451866 -64.772606 0.000000 -90.000000 -99.840431 143.318359
84 -24.626970 125.451866 -64.772606 0.000000 -90.000000 -99.840431 143.318359
[eye_right_bone]
83 -24.626970 125.451866 64.327362 0.000000 -89.965736 80.156380 143.117676
84 -24.626970 125.451866 64.327362 0.000000 -89.965736 80.156380 143.117676
[L_forearm]
83 322.776093 0.000000 -0.000119 0.000256 -0.002333 -102.513260 322.776093
84 322.776093 0.000000 -0.000119 0.000264 -0.002332 -102.936005 322.776093
[L_front_hand]
83 241.149185 -0.042021 -3.300071 60.145355 -2.204066 -5.138964 241.171753
84 241.149185 -0.042021 -3.300071 60.145355 -2.204067 -5.138964 241.171753
[L_weapon_bone]
83 156.183838 0.000000 0.000000 0.000014 0.000007 0.000001 156.183838
84 156.183838 0.000000 0.000000 0.000014 0.000007 0.000001 156.183838
[L_front_hand01_01]
83 86.095154 20.947098 -0.655860 -0.366594 -0.477154 75.385574 88.609184
84 86.095154 20.947098 -0.655860 -0.366594 -0.477154 75.385574 88.609184
[L_front_hand02_01]
83 86.935165 -11.437475 24.513514 154.399796 -59.883835 -61.369587 91.046425
84 86.935165 -11.437475 24.513514 154.399796 -59.883835 -61.369587 91.046425
[L_front_hand03_01]
83 86.637497 -14.123976 -20.424902 -153.913849 58.118122 -62.702866 90.126129
84 86.637497 -14.123976 -20.424902 -153.913849 58.118122 -62.702866 90.126129
[L_front_hand01_02]
83 71.020905 -0.000179 0.000030 0.000334 -0.002323 -106.379684 71.020905
84 71.020905 -0.000179 0.000030 0.000334 -0.002323 -106.379684 71.020905
[L_front_hand02_02]
83 71.020927 -0.000119 0.000060 0.000334 -0.002323 -106.379684 71.020927
84 71.020927 -0.000119 0.000060 0.000334 -0.002323 -106.379684 71.020927
[L_front_hand03_02]
83 71.020905 -0.000060 0.000060 0.000334 -0.002323 -106.379684 71.020905
84 71.020905 -0.000060 0.000060 0.000334 -0.002323 -106.379684 71.020905
[R_forearm]
83 322.776428 -0.000060 0.000030 0.201900 0.065785 -108.418549 322.776428
84 322.776428 -0.000060 0.000030 0.201919 0.065725 -108.384567 322.776428
[R_front_hand]
83 238.847015 -0.006795 2.210259 -2.635298 -10.645461 -26.312506 238.857239
84 238.847015 -0.006795 2.210259 -2.635298 -10.645461 -26.312506 238.857239
[R_weapon_bone]
83 155.664093 0.002503 -0.000030 0.003487 0.001180 -90.988930 155.664078
84 155.664093 0.002503 -0.000030 0.003487 0.001180 -90.988930 155.664078
[R_front_hand01_01]
83 87.624611 14.231146 22.918642 -154.633499 -59.950619 61.746044 91.683487
84 87.624611 14.231146 22.918642 -154.633499 -59.950619 61.746044 91.683487
[R_front_hand02_01]
83 89.356956 14.367283 -19.491137 154.602661 58.302849 63.744389 92.579636
84 89.356956 14.367283 -19.491137 154.602661 58.302849 63.744389 92.579636
[R_front_hand03_01]
83 87.286232 -22.307278 -0.143439 0.162155 -0.423168 -75.767906 90.091743
84 87.286232 -22.307278 -0.143439 0.162155 -0.423168 -75.767921 90.091743
[R_front_hand01_02]
83 71.020905 0.000060 0.000119 0.002323 -0.000334 106.381714 71.020905
84 71.020905 0.000060 0.000119 0.002323 -0.000334 106.381714 71.020905
[R_front_hand02_02]
83 71.020844 -0.000030 -0.000119 0.002323 -0.000334 106.381714 71.020836
84 71.020844 -0.000030 -0.000119 0.002323 -0.000334 106.381714 71.020836
[R_front_hand03_02]
83 71.020905 0.000000 0.000030 0.002323 -0.000334 106.381714 71.020905
84 71.020905 0.000000 0.000030 0.002323 -0.000334 106.381714 71.020905
[null_rope01_connect]
83 328.732483 0.000000 -0.000238 57.186943 -63.373493 15.887536 328.732483
84 328.732483 0.000000 -0.000238 70.979462 -66.186775 6.369589 328.732483
[Rope1_Seg01]
83 -0.000031 -0.000257 0.000027 107.849670 -3.308632 -75.311417 0.000260
84 -0.000032 -0.000260 0.000026 95.503563 5.789306 -84.714928 0.000263
[Rope1_Seg02]
83 139.999863 -0.000179 0.000000 -1.180481 -3.879134 2.748738 139.999863
84 139.999863 -0.000179 0.000000 -0.732650 -5.910021 6.148500 139.999863
[Rope1_Seg03]
83 139.999924 0.000060 -0.000060 -13.865502 -13.859014 0.274671 139.999924
84 139.999924 0.000060 -0.000060 -18.686855 -15.051900 2.330402 139.999924
[Rope1_Seg04]
83 139.999924 -0.000060 -0.000119 32.000427 18.489344 15.873833 139.999924
84 139.999924 -0.000060 -0.000119 55.796566 19.519287 25.733376 139.999924
[Rope1_Seg05]
83 139.999832 0.000119 -0.000060 8.230719 11.050042 1.063349 139.999832
84 139.999832 0.000119 -0.000060 9.609261 14.493496 -1.190011 139.999832
[Rope1_Seg06]
83 139.999954 0.000119 -0.000060 2.164355 3.652688 0.006380 139.999954
84 139.999954 0.000119 -0.000060 2.284868 4.755589 -0.928261 139.999954
[Rope1_Seg07]
83 139.999985 0.000060 0.000000 1.162708 2.158960 -0.075348 139.999985
84 139.999985 0.000060 0.000000 1.143790 2.743514 -0.648716 139.999985
[Rope1_Seg09]
83 121.602913 0.000119 -0.000089 -89.793175 -1.359789 0.847147 121.602913
84 121.602913 0.000119 -0.000089 -89.793175 -1.359789 0.847147 121.602913
[L_mid_hand01]
83 103.859421 1.038730 8.195221 130.544373 -67.584534 -38.866943 104.187431
84 103.859421 1.038730 8.195221 130.544373 -67.584534 -38.866943 104.187431
[L_mid_hand02]
83 105.572853 -4.139662 -10.864139 -168.923172 43.409309 -73.498886 106.211075
84 105.572853 -4.139662 -10.864139 -168.923172 43.409321 -73.498909 106.211075
[L_mid_hand03]
83 104.641464 17.579376 -3.913581 -6.012627 17.808178 74.893677 106.179977
84 104.641464 17.579376 -3.913581 -6.012627 17.808174 74.893669 106.179977
[null_rope02_connect]
83 328.732849 0.000179 -0.000119 -105.747894 62.488861 -26.129660 328.732849
84 328.732849 0.000179 -0.000119 -94.959038 63.611511 -16.953384 328.732849
[Rope2_Seg01]
83 0.000010 0.000278 0.000000 -23.072229 -3.568609 -60.312435 0.000278
84 0.000010 0.000279 0.000000 -15.267837 -3.933516 -55.595253 0.000279
[Rope2_Seg02]
83 139.999741 -0.000060 -0.000119 -17.892948 2.619103 -12.668032 139.999756
84 139.999741 -0.000060 -0.000119 -27.387785 0.019880 -15.643334 139.999756
[Rope2_Seg03]
83 140.000107 0.000030 0.000000 -10.701627 -0.243445 -8.238264 140.000107
84 140.000107 0.000030 0.000000 -14.558219 -1.457115 -9.597091 140.000107
[Rope2_Seg04]
83 139.999802 0.000000 -0.000060 0.383291 6.275041 -2.345098 139.999802
84 139.999802 0.000000 -0.000060 3.006248 8.951891 -1.167424 139.999802
[Rope2_Seg05]
83 139.999985 -0.000060 0.000119 6.118488 11.145958 2.604708 139.999985
84 139.999985 -0.000060 0.000119 8.075436 14.419436 3.768654 139.999985
[Rope2_Seg06]
83 139.999893 -0.000030 -0.000119 2.300126 6.787574 0.742639 139.999893
84 139.999893 -0.000030 -0.000119 2.290648 7.840713 0.629708 139.999893
[Rope2_Seg07]
83 139.999893 0.000060 -0.000060 0.787551 3.677170 -0.027488 139.999893
84 139.999893 0.000060 -0.000060 0.776313 4.241584 -0.063625 139.999893
[Rope2_Seg09]
83 121.338966 0.000089 -0.000060 33.793236 -1.359788 -0.847141 121.338966
84 121.338966 0.000089 -0.000060 33.793236 -1.359788 -0.847141 121.338966
[R_mid_hand01]
83 104.680779 11.144459 -10.335981 -16.212063 45.237247 70.462852 105.778534
84 104.680779 11.144459 -10.335981 -16.212063 45.237247 70.462852 105.778534
[R_mid_hand02]
83 104.070427 2.443552 8.231699 49.067368 -67.749771 39.286453 104.424065
84 104.070427 2.443552 8.231699 49.067368 -67.749771 39.286453 104.424065
[R_mid_hand03]
83 106.028137 -11.221827 -5.996406 -177.101105 15.551026 -76.585571 106.788818
84 106.028137 -11.221827 -5.996406 -177.101105 15.551026 -76.585571 106.788818
[spine02]
83 129.756927 0.001550 0.000119 0.391882 -4.041533 -13.418614 129.756927
84 129.756927 0.001550 0.000119 0.387936 -4.041955 -13.366507 129.756927
[spine03]
83 78.614174 0.081482 -4.899022 1.917666 3.821347 16.790562 78.766716
84 78.614174 0.081482 -4.899023 1.915551 3.822631 16.761126 78.766716
[pelvis]
83 169.435242 0.051022 0.000000 0.018589 -0.190328 -10.161945 169.435257
84 169.435242 0.051022 0.000000 0.019053 -0.190282 -10.441685 169.435257
[null_rope03_connect]
83 -1.257226 -2.466202 137.391083 32.610008 -46.960400 66.020531 137.418976
84 -1.257226 -2.466202 137.391083 40.823517 -50.642277 62.819408 137.418976
[null_rope04_connect]
83 -1.259640 -2.480268 -137.844437 32.610008 -46.960400 66.020531 137.872513
84 -1.259640 -2.480268 -137.844437 40.823517 -50.642277 62.819408 137.872513
[Rope3_Seg01]
83 -0.000035 -0.000257 0.000000 16.761108 9.262280 -80.573730 0.000259
84 -0.000035 -0.000260 0.000000 17.031090 8.483843 -78.726921 0.000262
[Rope3_Seg02]
83 139.999924 -0.000119 0.000060 -0.558298 -8.832508 7.112967 139.999924
84 139.999924 -0.000119 0.000060 -0.931711 -9.335587 7.402123 139.999924
[Rope3_Seg03]
83 139.999924 -0.000119 0.000119 -0.466940 -7.006402 5.462936 139.999924
84 139.999924 -0.000119 0.000119 -0.795931 -7.763301 5.897739 139.999924
[Rope3_Seg04]
83 139.999924 0.000119 0.000000 -0.436567 -5.611650 4.188312 139.999924
84 139.999924 0.000119 0.000000 -0.697495 -6.403376 4.609008 139.999924
[Rope3_Seg05]
83 139.999924 -0.000238 0.000060 0.070550 -0.988271 1.188081 139.999924
84 139.999924 -0.000238 0.000060 0.041143 -0.958297 1.193288 139.999924
[Rope3_Seg06]
83 139.999893 -0.000119 -0.000060 0.523239 2.532815 -0.798069 139.999893
84 139.999893 -0.000119 -0.000060 0.623815 3.242685 -1.093929 139.999893
[Rope3_Seg07]
83 139.999771 0.000060 -0.000119 0.626162 2.175467 -0.456381 139.999771
84 139.999771 0.000060 -0.000119 0.714435 2.627101 -0.630020 139.999771
[Rope3_Seg08]
83 139.999985 -0.000060 0.000000 0.619732 1.312383 -0.015964 139.999985
84 139.999985 -0.000060 0.000000 0.686539 1.674461 -0.181208 139.999985
[Rope3_Seg09]
83 90.185997 -0.000179 -0.000060 89.793228 -1.359877 -0.847183 90.185997
84 90.185997 -0.000179 -0.000060 89.793228 -1.359877 -0.847183 90.185997
[R_rear_hand01]
83 103.366196 -6.073594 -10.757982 -177.714203 24.565960 -73.910950 104.101845
84 103.366196 -6.073594 -10.757982 -177.714203 24.565960 -73.910950 104.101845
[R_rear_hand02]
83 100.509819 12.039542 -7.992327 -12.874829 36.868488 72.167213 101.543350
84 100.509819 12.039542 -7.992327 -12.874829 36.868488 72.167213 101.543350
[R_rear_hand03]
83 101.539970 5.215704 5.435467 71.484581 -71.816628 21.513813 101.819031
84 101.539970 5.215704 5.435467 71.484581 -71.816628 21.513813 101.819031
[Rope4_Seg01]
83 0.000010 0.000038 -0.000114 -75.529816 20.443844 -53.180241 0.000121
84 0.000010 0.000038 -0.000114 -78.330956 20.333057 -56.886154 0.000121
[Rope4_Seg02]
83 139.999985 0.000060 0.000119 -7.850342 2.861403 -10.090039 139.999985
84 139.999985 0.000060 0.000119 -5.963929 2.770683 -8.417911 139.999985
[Rope4_Seg03]
83 139.999924 0.000000 -0.000238 -12.735280 1.334034 -16.104317 139.999924
84 139.999924 0.000000 -0.000238 -10.216835 0.754058 -14.689171 139.999924
[Rope4_Seg04]
83 139.999985 0.000000 0.000119 -9.320258 11.030993 -8.228227 139.999985
84 139.999985 0.000000 0.000119 -8.505780 11.896360 -7.960860 139.999985
[Rope4_Seg05]
83 139.999802 -0.000060 -0.000119 5.646605 12.059542 16.010752 139.999802
84 139.999802 -0.000060 -0.000119 4.642529 13.737951 15.319153 139.999802
[Rope4_Seg06]
83 139.999924 0.000000 0.000060 0.720583 4.924452 4.503979 139.999924
84 139.999924 0.000000 0.000060 0.429353 4.878333 3.644141 139.999924
[Rope4_Seg07]
83 139.999802 0.000000 0.000000 0.288425 2.840739 2.185732 139.999802
84 139.999802 0.000000 0.000000 0.211356 2.817897 1.886889 139.999802
[Rope4_Seg08]
83 139.999924 0.000000 0.000119 -1.399858 1.654324 1.257697 139.999924
84 139.999924 0.000000 0.000119 -1.432269 1.627761 1.084426 139.999924
[Rope4_Seg09]
83 90.185791 0.000060 0.000060 -135.617828 2.228885 0.850567 90.185791
84 90.185791 0.000060 0.000060 -135.617828 2.228885 0.850567 90.185791
[L_rear_hand01]
83 101.696655 -8.392275 -7.654577 -12.874829 -36.868488 107.832764 102.329041
84 101.696655 -8.392275 -7.654577 -12.874829 -36.868488 107.832764 102.329041
[L_rear_hand02]
83 102.726799 -1.568258 5.773216 71.484581 71.816628 158.486160 102.900848
84 102.726799 -1.568258 5.773216 71.484581 71.816628 158.486160 102.900848
[L_rear_hand03]
83 104.552910 9.721220 -10.420293 -177.714203 -24.565960 -106.089035 105.519653
84 104.552910 9.721220 -10.420293 -177.714203 -24.565960 -106.089035 105.519653
